<svg xmlns="http://www.w3.org/2000/svg" xmlns:xlink="http://www.w3.org/1999/xlink" width="43" zoomAndPan="magnify" viewBox="0 0 32.25 58.499999" height="78" preserveAspectRatio="xMidYMid meet" version="1.2"><defs><clipPath id="172805a56a"><path d="M 0 0.421875 L 31 0.421875 L 31 57.589844 L 0 57.589844 Z M 0 0.421875 "/></clipPath><filter x="0%" y="0%" width="100%" filterUnits="objectBoundingBox" id="eda9b6a6fd" height="100%"><feColorMatrix values="0 0 0 0 1 0 0 0 0 1 0 0 0 0 1 0 0 0 1 0" type="matrix" in="SourceGraphic"/></filter><clipPath id="4605be117f"><path d="M 0.210938 0.421875 L 30.546875 0.421875 L 30.546875 57.589844 L 0.210938 57.589844 Z M 0.210938 0.421875 "/></clipPath><clipPath id="cb17a2972a"><rect x="0" width="31" y="0" height="58"/></clipPath><clipPath id="e0c9d482bb"><path d="M 0.210938 0.421875 L 30.546875 0.421875 L 30.546875 57.589844 L 0.210938 57.589844 Z M 0.210938 0.421875 "/></clipPath><clipPath id="41375d4c5a"><rect x="0" width="31" y="0" height="58"/></clipPath></defs><g id="a2e40b979e"><g clip-rule="nonzero" clip-path="url(#172805a56a)"><g mask="url(#e7820f53da)" transform="matrix(1,0,0,1,0,-0.000000000000003053)"><g clip-path="url(#cb17a2972a)"><g clip-rule="nonzero" clip-path="url(#4605be117f)"><path style=" stroke:none;fill-rule:nonzero;fill:#ffffff;fill-opacity:1;" d="M 4.992188 1.222656 C 3.871094 0.125 2.082031 0.15625 1.003906 1.292969 C -0.0546875 2.398438 -0.0546875 4.160156 1.003906 5.265625 L 24.40625 29.003906 L 1.003906 52.742188 C -0.078125 53.878906 -0.046875 55.691406 1.074219 56.785156 C 2.164062 57.855469 3.894531 57.859375 4.992188 56.789062 L 29.25 32.183594 C 30.980469 30.425781 30.980469 27.585938 29.25 25.828125 L 4.992188 1.222656 "/></g></g><mask id="e7820f53da"><g filter="url(#eda9b6a6fd)"><rect x="0" width="32.25" y="0" height="58.499999" style="fill:#000000;fill-opacity:0.5;stroke:none;"/></g></mask></g><g mask="url(#c34c34f879)" transform="matrix(1,0,0,1,0,-0.000000000000003053)"><g clip-path="url(#41375d4c5a)"><g clip-rule="nonzero" clip-path="url(#e0c9d482bb)"><path style=" stroke:none;fill-rule:nonzero;fill:#ffffff;fill-opacity:1;" d="M 4.992188 1.222656 C 3.871094 0.125 2.082031 0.15625 1.003906 1.292969 C -0.0546875 2.398438 -0.0546875 4.160156 1.003906 5.265625 L 24.40625 29.003906 L 1.003906 52.742188 C -0.078125 53.878906 -0.046875 55.691406 1.074219 56.785156 C 2.164062 57.855469 3.894531 57.859375 4.992188 56.789062 L 29.25 32.183594 C 30.980469 30.425781 30.980469 27.585938 29.25 25.828125 L 4.992188 1.222656 "/></g></g><mask id="c34c34f879"><g filter="url(#eda9b6a6fd)"><rect x="0" width="32.25" y="0" height="58.499999" style="fill:#000000;fill-opacity:0.5;stroke:none;"/></g></mask></g></g></g></svg>