<svg xmlns="http://www.w3.org/2000/svg" xmlns:xlink="http://www.w3.org/1999/xlink" width="43" zoomAndPan="magnify" viewBox="0 0 32.25 58.499999" height="78" preserveAspectRatio="xMidYMid meet" version="1.2"><defs><clipPath id="79d6a078a4"><path d="M 0 0.421875 L 31.515625 0.421875 L 31.515625 57.589844 L 0 57.589844 Z M 0 0.421875 "/></clipPath><filter x="0%" y="0%" width="100%" filterUnits="objectBoundingBox" id="4124f066b0" height="100%"><feColorMatrix values="0 0 0 0 1 0 0 0 0 1 0 0 0 0 1 0 0 0 1 0" type="matrix" in="SourceGraphic"/></filter><clipPath id="d28d9edf0a"><path d="M 0.480469 0.421875 L 30.785156 0.421875 L 30.785156 57.589844 L 0.480469 57.589844 Z M 0.480469 0.421875 "/></clipPath><clipPath id="16a08b2ab6"><rect x="0" width="32" y="0" height="58"/></clipPath><clipPath id="6885878bc7"><path d="M 0.480469 0.710938 L 30.785156 0.710938 L 30.785156 57.589844 L 0.480469 57.589844 Z M 0.480469 0.710938 "/></clipPath><clipPath id="bd6b8a6a9e"><rect x="0" width="32" y="0" height="58"/></clipPath></defs><g id="fd299e967b"><g clip-rule="nonzero" clip-path="url(#79d6a078a4)"><g mask="url(#47f097434e)" transform="matrix(1,0,0,1,0,-0.000000000000003053)"><g clip-path="url(#16a08b2ab6)"><g clip-rule="nonzero" clip-path="url(#d28d9edf0a)"><path style=" stroke:none;fill-rule:nonzero;fill:#ffffff;fill-opacity:1;" d="M 26.035156 1.222656 C 27.15625 0.125 28.941406 0.15625 30.023438 1.292969 C 31.078125 2.398438 31.078125 4.160156 30.023438 5.265625 L 6.617188 29.003906 L 30.023438 52.742188 C 31.101562 53.878906 31.074219 55.691406 29.953125 56.785156 C 28.859375 57.855469 27.128906 57.859375 26.035156 56.789062 L 1.773438 32.183594 C 0.0429688 30.425781 0.0429688 27.585938 1.773438 25.828125 L 26.035156 1.222656 "/></g></g><mask id="47f097434e"><g filter="url(#4124f066b0)"><rect x="0" width="32.25" y="0" height="58.499999" style="fill:#000000;fill-opacity:0.5;stroke:none;"/></g></mask></g><g mask="url(#7f8e5f36a7)" transform="matrix(1,0,0,1,0,-0.000000000000003053)"><g clip-path="url(#bd6b8a6a9e)"><g clip-rule="nonzero" clip-path="url(#6885878bc7)"><path style=" stroke:none;fill-rule:nonzero;fill:#ffffff;fill-opacity:1;" d="M 26.035156 1.511719 C 27.15625 0.414062 28.941406 0.445312 30.023438 1.582031 C 31.078125 2.6875 31.078125 4.449219 30.023438 5.554688 L 6.617188 29.292969 L 30.023438 53.03125 C 31.101562 54.167969 31.074219 55.980469 29.953125 57.074219 C 28.859375 58.144531 27.128906 58.148438 26.035156 57.078125 L 1.773438 32.472656 C 0.0429688 30.714844 0.0429688 27.875 1.773438 26.117188 L 26.035156 1.511719 "/></g></g><mask id="7f8e5f36a7"><g filter="url(#4124f066b0)"><rect x="0" width="32.25" y="0" height="58.499999" style="fill:#000000;fill-opacity:0.5;stroke:none;"/></g></mask></g></g></g></svg>