<svg xmlns="http://www.w3.org/2000/svg" xmlns:xlink="http://www.w3.org/1999/xlink" width="69" zoomAndPan="magnify" viewBox="0 0 51.75 42.75" height="57" preserveAspectRatio="xMidYMid meet" version="1.2"><defs><clipPath id="ac437afa00"><path d="M 0.0273438 0 L 51 0 L 51 41.753906 L 0.0273438 41.753906 Z M 0.0273438 0 "/></clipPath></defs><g id="7eca973537"><g clip-rule="nonzero" clip-path="url(#ac437afa00)"><path style=" stroke:none;fill-rule:nonzero;fill:#ffffff;fill-opacity:1;" d="M 40.550781 0.0390625 C 34.859375 0.0507812 30.25 4.667969 30.25 10.363281 C 30.25 16.0625 34.871094 20.6875 40.570312 20.6875 C 46.273438 20.6875 50.898438 16.066406 50.898438 10.363281 C 50.898438 4.660156 46.273438 0.0390625 40.574219 0.0390625 C 40.566406 0.0390625 40.5625 0.0390625 40.554688 0.0390625 Z M 9.050781 4.054688 C 8.121094 4.105469 7.210938 4.480469 6.507812 5.167969 C 5.894531 5.730469 5.304688 6.316406 4.742188 6.933594 C 3.453125 8.351562 2.300781 9.929688 1.46875 11.679688 C 0.632812 13.429688 0.121094 15.367188 0.144531 17.328125 C 0.15625 18.292969 0.316406 19.25 0.578125 20.175781 C 0.773438 20.992188 1.195312 21.742188 1.78125 22.34375 C 2.460938 23.039062 3.339844 23.515625 4.296875 23.683594 C 4.753906 23.789062 5.214844 23.878906 5.6875 23.945312 C 6.773438 24.09375 7.917969 24.097656 9.007812 23.792969 C 9.160156 23.75 9.285156 23.714844 9.378906 23.703125 C 9.46875 23.695312 9.535156 23.714844 9.5625 23.730469 C 9.585938 23.746094 9.625 23.785156 9.65625 23.851562 C 9.691406 23.921875 9.71875 24.023438 9.753906 24.148438 C 10.074219 25.359375 10.441406 26.566406 10.925781 27.734375 C 11.976562 30.285156 13.574219 32.636719 15.679688 34.441406 C 17.125 35.679688 18.777344 36.632812 20.445312 37.484375 C 22.03125 38.289062 23.640625 39.007812 25.109375 39.921875 C 25.792969 40.34375 26.476562 40.839844 27.261719 41.207031 C 28.050781 41.578125 28.960938 41.824219 29.878906 41.671875 C 30.683594 41.539062 31.378906 41.117188 31.976562 40.65625 C 33.019531 39.851562 33.867188 38.839844 34.621094 37.804688 C 35.695312 36.332031 36.621094 34.769531 37.472656 33.171875 C 38.554688 31.132812 39.5 29.039062 40.523438 27 C 41.21875 25.613281 41.960938 24.238281 42.601562 22.796875 C 42.710938 22.550781 42.804688 22.289062 42.90625 22.035156 C 42.136719 22.191406 41.359375 22.273438 40.578125 22.273438 C 38.890625 22.273438 37.21875 21.886719 35.683594 21.191406 C 34.804688 22.351562 33.558594 23.285156 32.269531 24.09375 C 31.214844 24.753906 30.085938 25.390625 29.101562 26.253906 C 28.789062 24.976562 28.242188 23.753906 27.484375 22.675781 C 25.824219 20.3125 23.292969 18.75 20.699219 17.632812 C 20.511719 17.550781 20.339844 17.472656 20.195312 17.390625 C 20.046875 17.304688 19.925781 17.210938 19.84375 17.105469 C 19.742188 16.980469 19.675781 16.808594 19.632812 16.613281 C 19.589844 16.417969 19.570312 16.199219 19.550781 15.957031 C 19.4375 14.535156 19.21875 13.097656 18.742188 11.722656 C 18.257812 10.347656 17.511719 9.035156 16.425781 8.023438 C 15.128906 6.808594 13.507812 6.125 12.144531 5.21875 C 11.988281 5.113281 11.832031 5.003906 11.679688 4.886719 C 10.914062 4.273438 9.972656 4 9.050781 4.054688 Z M 40.511719 4.167969 C 40.527344 4.167969 40.542969 4.167969 40.558594 4.167969 C 40.5625 4.167969 40.570312 4.167969 40.574219 4.167969 C 43.996094 4.167969 46.765625 6.941406 46.769531 10.363281 C 46.769531 13.78125 43.996094 16.554688 40.574219 16.558594 C 37.152344 16.558594 34.378906 13.785156 34.378906 10.363281 C 34.378906 6.964844 37.113281 4.203125 40.511719 4.167969 Z M 40.566406 7.261719 C 38.859375 7.269531 37.476562 8.65625 37.476562 10.363281 C 37.476562 12.070312 38.863281 13.457031 40.574219 13.460938 C 42.28125 13.460938 43.671875 12.074219 43.671875 10.363281 C 43.671875 8.652344 42.285156 7.265625 40.574219 7.265625 C 40.570312 7.261719 40.570312 7.261719 40.566406 7.261719 Z M 40.566406 7.261719 "/><path style=" stroke:none;fill-rule:nonzero;fill:#ffffff;fill-opacity:1;" d="M 40.550781 0.0390625 C 34.859375 0.0507812 30.25 4.667969 30.25 10.363281 C 30.25 16.0625 34.871094 20.6875 40.570312 20.6875 C 46.273438 20.6875 50.898438 16.066406 50.898438 10.363281 C 50.898438 4.660156 46.273438 0.0390625 40.574219 0.0390625 C 40.566406 0.0390625 40.5625 0.0390625 40.554688 0.0390625 Z M 9.050781 4.054688 C 8.121094 4.105469 7.210938 4.480469 6.507812 5.167969 C 5.894531 5.730469 5.304688 6.316406 4.742188 6.933594 C 3.453125 8.351562 2.300781 9.929688 1.46875 11.679688 C 0.632812 13.429688 0.121094 15.367188 0.144531 17.328125 C 0.15625 18.292969 0.316406 19.25 0.578125 20.175781 C 0.773438 20.992188 1.195312 21.742188 1.78125 22.34375 C 2.460938 23.039062 3.339844 23.515625 4.296875 23.683594 C 4.753906 23.789062 5.214844 23.878906 5.6875 23.945312 C 6.773438 24.09375 7.917969 24.097656 9.007812 23.792969 C 9.160156 23.75 9.285156 23.714844 9.378906 23.703125 C 9.46875 23.695312 9.535156 23.714844 9.5625 23.730469 C 9.585938 23.746094 9.625 23.785156 9.65625 23.851562 C 9.691406 23.921875 9.71875 24.023438 9.753906 24.148438 C 10.074219 25.359375 10.441406 26.566406 10.925781 27.734375 C 11.976562 30.285156 13.574219 32.636719 15.679688 34.441406 C 17.125 35.679688 18.777344 36.632812 20.445312 37.484375 C 22.03125 38.289062 23.640625 39.007812 25.109375 39.921875 C 25.792969 40.34375 26.476562 40.839844 27.261719 41.207031 C 28.050781 41.578125 28.960938 41.824219 29.878906 41.671875 C 30.683594 41.539062 31.378906 41.117188 31.976562 40.65625 C 33.019531 39.851562 33.867188 38.839844 34.621094 37.804688 C 35.695312 36.332031 36.621094 34.769531 37.472656 33.171875 C 38.554688 31.132812 39.5 29.039062 40.523438 27 C 41.21875 25.613281 41.960938 24.238281 42.601562 22.796875 C 42.710938 22.550781 42.804688 22.289062 42.90625 22.035156 C 42.136719 22.191406 41.359375 22.273438 40.578125 22.273438 C 38.890625 22.273438 37.21875 21.886719 35.683594 21.191406 C 34.804688 22.351562 33.558594 23.285156 32.269531 24.09375 C 31.214844 24.753906 30.085938 25.390625 29.101562 26.253906 C 28.789062 24.976562 28.242188 23.753906 27.484375 22.675781 C 25.824219 20.3125 23.292969 18.75 20.699219 17.632812 C 20.511719 17.550781 20.339844 17.472656 20.195312 17.390625 C 20.046875 17.304688 19.925781 17.210938 19.84375 17.105469 C 19.742188 16.980469 19.675781 16.808594 19.632812 16.613281 C 19.589844 16.417969 19.570312 16.199219 19.550781 15.957031 C 19.4375 14.535156 19.21875 13.097656 18.742188 11.722656 C 18.257812 10.347656 17.511719 9.035156 16.425781 8.023438 C 15.128906 6.808594 13.507812 6.125 12.144531 5.21875 C 11.988281 5.113281 11.832031 5.003906 11.679688 4.886719 C 10.914062 4.273438 9.972656 4 9.050781 4.054688 Z M 40.511719 4.167969 C 40.527344 4.167969 40.542969 4.167969 40.558594 4.167969 C 40.5625 4.167969 40.570312 4.167969 40.574219 4.167969 C 43.996094 4.167969 46.765625 6.941406 46.769531 10.363281 C 46.769531 13.78125 43.996094 16.554688 40.574219 16.558594 C 37.152344 16.558594 34.378906 13.785156 34.378906 10.363281 C 34.378906 6.964844 37.113281 4.203125 40.511719 4.167969 Z M 40.566406 7.261719 C 38.859375 7.269531 37.476562 8.65625 37.476562 10.363281 C 37.476562 12.070312 38.863281 13.457031 40.574219 13.460938 C 42.28125 13.460938 43.671875 12.074219 43.671875 10.363281 C 43.671875 8.652344 42.285156 7.265625 40.574219 7.265625 C 40.570312 7.261719 40.570312 7.261719 40.566406 7.261719 Z M 40.566406 7.261719 "/></g></g></svg>