<svg xmlns="http://www.w3.org/2000/svg" xmlns:xlink="http://www.w3.org/1999/xlink" width="70" zoomAndPan="magnify" viewBox="0 0 52.5 38.249999" height="51" preserveAspectRatio="xMidYMid meet" version="1.2"><defs><clipPath id="2bea6bbc70"><path d="M 33 20 L 51.75 20 L 51.75 36.777344 L 33 36.777344 Z M 33 20 "/></clipPath><clipPath id="b81241f24c"><path d="M 0.257812 20 L 16 20 L 16 36.777344 L 0.257812 36.777344 Z M 0.257812 20 "/></clipPath><clipPath id="2e1d4965b5"><path d="M 10 0 L 47 0 L 47 36.777344 L 10 36.777344 Z M 10 0 "/></clipPath><clipPath id="95bee92593"><path d="M 33 20 L 51.75 20 L 51.75 36.777344 L 33 36.777344 Z M 33 20 "/></clipPath><clipPath id="aed5b82335"><path d="M 0.257812 20 L 16 20 L 16 36.777344 L 0.257812 36.777344 Z M 0.257812 20 "/></clipPath><clipPath id="d8699ca5a6"><path d="M 10 0 L 47 0 L 47 36.777344 L 10 36.777344 Z M 10 0 "/></clipPath></defs><g id="8172457fc1"><path style=" stroke:none;fill-rule:nonzero;fill:#ffffff;fill-opacity:1;" d="M 24.589844 19.265625 C 25.1875 18.425781 25.339844 17.34375 25 16.371094 L 23.640625 12.464844 C 23.378906 12.460938 23.109375 12.457031 22.832031 12.449219 L 23.78125 18.722656 C 23.839844 19.117188 23.835938 19.511719 23.773438 19.898438 L 23.988281 19.898438 C 24.214844 19.714844 24.417969 19.507812 24.589844 19.265625 Z M 24.589844 19.265625 "/><path style=" stroke:none;fill-rule:nonzero;fill:#ffffff;fill-opacity:1;" d="M 16.152344 18.769531 L 15.464844 14.230469 L 6.523438 14.230469 C 4.761719 14.230469 3.332031 15.65625 3.332031 17.417969 C 3.332031 18.421875 3.796875 19.3125 4.515625 19.898438 L 15.65625 19.898438 Z M 16.152344 18.769531 "/><g clip-rule="nonzero" clip-path="url(#2bea6bbc70)"><path style=" stroke:none;fill-rule:nonzero;fill:#ffffff;fill-opacity:1;" d="M 46.761719 36.039062 L 51.613281 36.039062 L 51.613281 33.488281 L 50.585938 33.488281 L 48.910156 25.039062 L 48.761719 24.273438 L 49.65625 24.273438 C 50.648438 24.273438 51.460938 23.460938 51.460938 22.46875 C 51.460938 21.476562 50.648438 20.664062 49.65625 20.664062 L 33.613281 20.664062 L 33.945312 25.726562 L 34.457031 25.726562 L 34.457031 24.453125 C 34.457031 23.714844 35.054688 23.117188 35.792969 23.117188 L 37.414062 23.117188 C 38.148438 23.117188 38.746094 23.714844 38.746094 24.453125 L 38.746094 25.726562 L 46.449219 25.726562 L 47.984375 33.488281 L 46.761719 33.488281 Z M 46.761719 36.039062 "/></g><path style=" stroke:none;fill-rule:nonzero;fill:#ffffff;fill-opacity:1;" d="M 23.75 24.453125 C 23.75 23.714844 24.351562 23.117188 25.085938 23.117188 L 26.707031 23.117188 C 27.441406 23.117188 28.042969 23.714844 28.042969 24.453125 L 28.042969 25.726562 L 28.679688 25.726562 L 28.34375 20.664062 L 23.5625 20.664062 C 23.542969 20.710938 23.523438 20.761719 23.503906 20.808594 L 21.339844 25.726562 L 23.75 25.726562 Z M 23.75 24.453125 "/><g clip-rule="nonzero" clip-path="url(#b81241f24c)"><path style=" stroke:none;fill-rule:nonzero;fill:#ffffff;fill-opacity:1;" d="M 15.316406 20.664062 L 2.21875 20.664062 C 1.226562 20.664062 0.414062 21.476562 0.414062 22.46875 C 0.414062 23.460938 1.226562 24.273438 2.21875 24.273438 L 3.113281 24.273438 L 2.960938 25.039062 L 1.289062 33.488281 L 0.257812 33.488281 L 0.257812 36.039062 L 5.113281 36.039062 L 5.113281 33.488281 L 3.886719 33.488281 L 5.425781 25.722656 L 13.089844 25.722656 Z M 15.316406 20.664062 "/></g><g clip-rule="nonzero" clip-path="url(#2e1d4965b5)"><path style=" stroke:none;fill-rule:nonzero;fill:#ffffff;fill-opacity:1;" d="M 19.253906 2.609375 C 17.402344 2.558594 16.457031 2.816406 15.976562 3.402344 C 15.148438 4.09375 14.6875 5.1875 14.863281 6.328125 L 16.757812 18.851562 L 10.847656 32.277344 C 10.136719 33.890625 10.867188 35.773438 12.480469 36.484375 C 12.898438 36.667969 13.332031 36.753906 13.761719 36.753906 C 14.988281 36.753906 16.15625 36.042969 16.683594 34.847656 L 22.96875 20.574219 C 23.210938 20.019531 23.292969 19.410156 23.203125 18.8125 L 22.144531 11.835938 C 23.824219 11.917969 25.308594 11.886719 26.738281 11.738281 C 27.339844 11.675781 27.929688 11.589844 28.523438 11.484375 L 29.503906 5.007812 C 29.695312 3.730469 30.8125 2.769531 32.097656 2.769531 C 32.230469 2.769531 32.363281 2.78125 32.496094 2.800781 C 33.925781 3.019531 34.917969 4.359375 34.699219 5.792969 L 34.078125 9.902344 C 34.15625 9.875 34.230469 9.847656 34.308594 9.816406 C 35.234375 9.46875 35.992188 9.003906 36.605469 8.476562 L 42.320312 19.898438 L 46.800781 19.898438 C 46.765625 19.71875 46.707031 19.542969 46.625 19.375 L 43.144531 12.425781 C 40.054688 11.929688 37.734375 9.195312 37.832031 5.984375 C 37.863281 4.992188 38.121094 4.0625 38.546875 3.238281 L 38.5 3.148438 C 38.5 3.144531 38.496094 3.140625 38.496094 3.136719 C 38.488281 3.113281 38.484375 3.089844 38.476562 3.066406 C 37.867188 0.90625 34.800781 0.0429688 32.285156 0.851562 C 29.910156 1.394531 26.851562 2.199219 23.765625 2.535156 C 22.242188 2.703125 20.710938 2.757812 19.253906 2.609375 Z M 19.253906 2.609375 "/></g><path style=" stroke:none;fill-rule:nonzero;fill:#ffffff;fill-opacity:1;" d="M 38.417969 6.003906 C 38.320312 9.171875 40.808594 11.820312 43.980469 11.917969 C 47.148438 12.019531 49.796875 9.527344 49.894531 6.359375 C 49.992188 3.191406 47.503906 0.542969 44.335938 0.445312 C 41.167969 0.347656 38.519531 2.835938 38.417969 6.003906 Z M 38.417969 6.003906 "/><path style=" stroke:none;fill-rule:nonzero;fill:#ffffff;fill-opacity:1;" d="M 28.730469 26.484375 L 27.457031 26.484375 L 27.457031 24.453125 C 27.457031 24.039062 27.117188 23.703125 26.707031 23.703125 L 25.085938 23.703125 C 24.675781 23.703125 24.335938 24.039062 24.335938 24.453125 L 24.335938 30.039062 C 24.335938 30.453125 24.675781 30.789062 25.085938 30.789062 L 26.707031 30.789062 C 27.117188 30.789062 27.457031 30.453125 27.457031 30.039062 L 27.457031 28.007812 L 29 28.007812 C 28.871094 27.726562 28.792969 27.421875 28.769531 27.097656 Z M 28.730469 26.484375 "/><path style=" stroke:none;fill-rule:nonzero;fill:#ffffff;fill-opacity:1;" d="M 38.160156 24.453125 C 38.160156 24.039062 37.824219 23.703125 37.414062 23.703125 L 35.792969 23.703125 C 35.378906 23.703125 35.042969 24.039062 35.042969 24.453125 L 35.042969 26.484375 L 33.996094 26.484375 L 34.011719 26.753906 C 34.042969 27.199219 33.957031 27.625 33.785156 28.007812 L 35.042969 28.007812 L 35.042969 30.039062 C 35.042969 30.453125 35.378906 30.789062 35.792969 30.789062 L 37.414062 30.789062 C 37.824219 30.789062 38.160156 30.453125 38.160156 30.039062 Z M 38.160156 24.453125 "/><path style=" stroke:none;fill-rule:nonzero;fill:#ffffff;fill-opacity:1;" d="M 33.429688 26.792969 L 32.667969 15.28125 L 34.117188 5.703125 C 34.289062 4.589844 33.519531 3.550781 32.40625 3.382812 C 31.292969 3.214844 30.25 3.980469 30.082031 5.09375 L 28.601562 14.890625 C 28.578125 15.035156 28.570312 15.183594 28.582031 15.328125 L 29.355469 27.058594 C 29.425781 28.140625 30.324219 28.964844 31.390625 28.964844 C 31.433594 28.964844 31.480469 28.964844 31.527344 28.960938 C 32.652344 28.886719 33.503906 27.914062 33.429688 26.792969 Z M 33.429688 26.792969 "/><path style=" stroke:none;fill-rule:nonzero;fill:#ffffff;fill-opacity:1;" d="M 24.589844 19.265625 C 25.1875 18.425781 25.339844 17.34375 25 16.371094 L 23.640625 12.464844 C 23.378906 12.460938 23.109375 12.457031 22.832031 12.449219 L 23.78125 18.722656 C 23.839844 19.117188 23.835938 19.511719 23.773438 19.898438 L 23.988281 19.898438 C 24.214844 19.714844 24.417969 19.507812 24.589844 19.265625 Z M 24.589844 19.265625 "/><path style=" stroke:none;fill-rule:nonzero;fill:#ffffff;fill-opacity:1;" d="M 16.152344 18.769531 L 15.464844 14.230469 L 6.523438 14.230469 C 4.761719 14.230469 3.332031 15.65625 3.332031 17.417969 C 3.332031 18.421875 3.796875 19.3125 4.515625 19.898438 L 15.65625 19.898438 Z M 16.152344 18.769531 "/><g clip-rule="nonzero" clip-path="url(#95bee92593)"><path style=" stroke:none;fill-rule:nonzero;fill:#ffffff;fill-opacity:1;" d="M 46.761719 36.039062 L 51.613281 36.039062 L 51.613281 33.488281 L 50.585938 33.488281 L 48.910156 25.039062 L 48.761719 24.273438 L 49.65625 24.273438 C 50.648438 24.273438 51.460938 23.460938 51.460938 22.46875 C 51.460938 21.476562 50.648438 20.664062 49.65625 20.664062 L 33.613281 20.664062 L 33.945312 25.726562 L 34.457031 25.726562 L 34.457031 24.453125 C 34.457031 23.714844 35.054688 23.117188 35.792969 23.117188 L 37.414062 23.117188 C 38.148438 23.117188 38.746094 23.714844 38.746094 24.453125 L 38.746094 25.726562 L 46.449219 25.726562 L 47.984375 33.488281 L 46.761719 33.488281 Z M 46.761719 36.039062 "/></g><path style=" stroke:none;fill-rule:nonzero;fill:#ffffff;fill-opacity:1;" d="M 23.75 24.453125 C 23.75 23.714844 24.351562 23.117188 25.085938 23.117188 L 26.707031 23.117188 C 27.441406 23.117188 28.042969 23.714844 28.042969 24.453125 L 28.042969 25.726562 L 28.679688 25.726562 L 28.34375 20.664062 L 23.5625 20.664062 C 23.542969 20.710938 23.523438 20.761719 23.503906 20.808594 L 21.339844 25.726562 L 23.75 25.726562 Z M 23.75 24.453125 "/><g clip-rule="nonzero" clip-path="url(#aed5b82335)"><path style=" stroke:none;fill-rule:nonzero;fill:#ffffff;fill-opacity:1;" d="M 15.316406 20.664062 L 2.21875 20.664062 C 1.226562 20.664062 0.414062 21.476562 0.414062 22.46875 C 0.414062 23.460938 1.226562 24.273438 2.21875 24.273438 L 3.113281 24.273438 L 2.960938 25.039062 L 1.289062 33.488281 L 0.257812 33.488281 L 0.257812 36.039062 L 5.113281 36.039062 L 5.113281 33.488281 L 3.886719 33.488281 L 5.425781 25.722656 L 13.089844 25.722656 Z M 15.316406 20.664062 "/></g><g clip-rule="nonzero" clip-path="url(#d8699ca5a6)"><path style=" stroke:none;fill-rule:nonzero;fill:#ffffff;fill-opacity:1;" d="M 19.253906 2.609375 C 17.402344 2.558594 16.457031 2.816406 15.976562 3.402344 C 15.148438 4.09375 14.6875 5.1875 14.863281 6.328125 L 16.757812 18.851562 L 10.847656 32.277344 C 10.136719 33.890625 10.867188 35.773438 12.480469 36.484375 C 12.898438 36.667969 13.332031 36.753906 13.761719 36.753906 C 14.988281 36.753906 16.15625 36.042969 16.683594 34.847656 L 22.96875 20.574219 C 23.210938 20.019531 23.292969 19.410156 23.203125 18.8125 L 22.144531 11.835938 C 23.824219 11.917969 25.308594 11.886719 26.738281 11.738281 C 27.339844 11.675781 27.929688 11.589844 28.523438 11.484375 L 29.503906 5.007812 C 29.695312 3.730469 30.8125 2.769531 32.097656 2.769531 C 32.230469 2.769531 32.363281 2.78125 32.496094 2.800781 C 33.925781 3.019531 34.917969 4.359375 34.699219 5.792969 L 34.078125 9.902344 C 34.15625 9.875 34.230469 9.847656 34.308594 9.816406 C 35.234375 9.46875 35.992188 9.003906 36.605469 8.476562 L 42.320312 19.898438 L 46.800781 19.898438 C 46.765625 19.71875 46.707031 19.542969 46.625 19.375 L 43.144531 12.425781 C 40.054688 11.929688 37.734375 9.195312 37.832031 5.984375 C 37.863281 4.992188 38.121094 4.0625 38.546875 3.238281 L 38.5 3.148438 C 38.5 3.144531 38.496094 3.140625 38.496094 3.136719 C 38.488281 3.113281 38.484375 3.089844 38.476562 3.066406 C 37.867188 0.90625 34.800781 0.0429688 32.285156 0.851562 C 29.910156 1.394531 26.851562 2.199219 23.765625 2.535156 C 22.242188 2.703125 20.710938 2.757812 19.253906 2.609375 Z M 19.253906 2.609375 "/></g><path style=" stroke:none;fill-rule:nonzero;fill:#ffffff;fill-opacity:1;" d="M 38.417969 6.003906 C 38.320312 9.171875 40.808594 11.820312 43.980469 11.917969 C 47.148438 12.019531 49.796875 9.527344 49.894531 6.359375 C 49.992188 3.191406 47.503906 0.542969 44.335938 0.445312 C 41.167969 0.347656 38.519531 2.835938 38.417969 6.003906 Z M 38.417969 6.003906 "/><path style=" stroke:none;fill-rule:nonzero;fill:#ffffff;fill-opacity:1;" d="M 28.730469 26.484375 L 27.457031 26.484375 L 27.457031 24.453125 C 27.457031 24.039062 27.117188 23.703125 26.707031 23.703125 L 25.085938 23.703125 C 24.675781 23.703125 24.335938 24.039062 24.335938 24.453125 L 24.335938 30.039062 C 24.335938 30.453125 24.675781 30.789062 25.085938 30.789062 L 26.707031 30.789062 C 27.117188 30.789062 27.457031 30.453125 27.457031 30.039062 L 27.457031 28.007812 L 29 28.007812 C 28.871094 27.726562 28.792969 27.421875 28.769531 27.097656 Z M 28.730469 26.484375 "/><path style=" stroke:none;fill-rule:nonzero;fill:#ffffff;fill-opacity:1;" d="M 38.160156 24.453125 C 38.160156 24.039062 37.824219 23.703125 37.414062 23.703125 L 35.792969 23.703125 C 35.378906 23.703125 35.042969 24.039062 35.042969 24.453125 L 35.042969 26.484375 L 33.996094 26.484375 L 34.011719 26.753906 C 34.042969 27.199219 33.957031 27.625 33.785156 28.007812 L 35.042969 28.007812 L 35.042969 30.039062 C 35.042969 30.453125 35.378906 30.789062 35.792969 30.789062 L 37.414062 30.789062 C 37.824219 30.789062 38.160156 30.453125 38.160156 30.039062 Z M 38.160156 24.453125 "/><path style=" stroke:none;fill-rule:nonzero;fill:#ffffff;fill-opacity:1;" d="M 33.429688 26.792969 L 32.667969 15.28125 L 34.117188 5.703125 C 34.289062 4.589844 33.519531 3.550781 32.40625 3.382812 C 31.292969 3.214844 30.25 3.980469 30.082031 5.09375 L 28.601562 14.890625 C 28.578125 15.035156 28.570312 15.183594 28.582031 15.328125 L 29.355469 27.058594 C 29.425781 28.140625 30.324219 28.964844 31.390625 28.964844 C 31.433594 28.964844 31.480469 28.964844 31.527344 28.960938 C 32.652344 28.886719 33.503906 27.914062 33.429688 26.792969 Z M 33.429688 26.792969 "/></g></svg>