<svg xmlns="http://www.w3.org/2000/svg" xmlns:xlink="http://www.w3.org/1999/xlink" width="48" zoomAndPan="magnify" viewBox="0 0 36 26.999998" height="36" preserveAspectRatio="xMidYMid meet" version="1.2"><defs><clipPath id="1ed3966026"><path d="M 0 0 L 35.25 0 L 35.25 26.25 L 0 26.25 Z M 0 0 "/></clipPath></defs><g id="fd4d6cc361"><g clip-rule="nonzero" clip-path="url(#1ed3966026)"><path style=" stroke:none;fill-rule:nonzero;fill:#ffffff;fill-opacity:1;" d="M 32.296875 26.242188 L 2.714844 26.242188 C 2.492188 26.214844 2.328125 26.1875 2.226562 26.167969 C 1.277344 25.96875 0.492188 25.226562 0.175781 24.339844 C 0.0820312 24.074219 0.046875 23.796875 0 23.515625 L 0 2.6875 C 0.0507812 2.550781 0.046875 2.402344 0.0742188 2.289062 C 0.109375 2.132812 0.148438 1.957031 0.210938 1.8125 C 0.609375 0.878906 1.308594 0.300781 2.300781 0.0820312 C 2.394531 0.0625 2.484375 0.0507812 2.578125 0.0429688 C 2.703125 0.0390625 2.820312 0.0117188 2.945312 0.0117188 C 12.585938 0.0078125 22.324219 0.0078125 32.167969 0.0117188 C 32.242188 0.0117188 32.316406 0.015625 32.390625 0.0273438 C 32.464844 0.0390625 32.539062 0.046875 32.613281 0.0585938 C 32.871094 0.09375 33.097656 0.152344 33.296875 0.242188 C 34.238281 0.664062 34.933594 1.546875 35.003906 2.601562 C 35.015625 2.773438 35.03125 2.9375 35.03125 3.109375 C 34.992188 8.339844 35.011719 13.574219 35.011719 19.171875 C 35.011719 20.371094 35.042969 21.632812 35.027344 22.898438 C 35.023438 23.289062 35.011719 23.550781 35 23.6875 C 34.921875 24.515625 34.53125 25.191406 33.828125 25.710938 C 33.492188 25.960938 33.121094 26.117188 32.707031 26.183594 C 32.570312 26.207031 32.433594 26.226562 32.296875 26.242188 Z M 16.996094 15.78125 C 17.4375 15.949219 17.960938 15.839844 18.308594 15.519531 C 21.359375 12.675781 24.394531 9.859375 27.414062 7.078125 C 29.15625 5.46875 30.886719 3.867188 32.597656 2.277344 C 32.625 2.25 32.625 2.226562 32.601562 2.199219 C 32.5625 2.160156 32.503906 2.136719 32.425781 2.136719 C 22.429688 2.132812 12.554688 2.132812 2.800781 2.132812 C 2.609375 2.132812 2.5 2.175781 2.371094 2.300781 C 2.351562 2.320312 2.351562 2.335938 2.371094 2.355469 C 2.476562 2.445312 2.582031 2.539062 2.6875 2.632812 C 3.847656 3.695312 5.152344 4.902344 6.601562 6.253906 C 9.707031 9.148438 12.71875 11.949219 15.640625 14.652344 C 15.898438 14.894531 16.164062 15.140625 16.4375 15.390625 C 16.660156 15.59375 16.84375 15.722656 16.996094 15.78125 Z M 32.851562 5.054688 C 32.851562 5.046875 32.847656 5.039062 32.839844 5.035156 C 32.832031 5.027344 32.824219 5.027344 32.816406 5.035156 C 32.578125 5.21875 32.382812 5.4375 32.15625 5.652344 C 29.675781 7.953125 27.132812 10.328125 24.523438 12.769531 C 24.5 12.792969 24.472656 12.816406 24.445312 12.832031 C 24.40625 12.859375 24.402344 12.890625 24.441406 12.921875 C 24.527344 12.992188 24.605469 13.0625 24.671875 13.125 C 26.082031 14.445312 27.597656 15.875 29.222656 17.414062 C 29.539062 17.714844 29.8125 17.976562 30.050781 18.210938 C 30.308594 18.464844 30.585938 18.707031 30.84375 18.960938 C 31.042969 19.15625 31.242188 19.34375 31.433594 19.519531 C 31.757812 19.808594 32.050781 20.117188 32.375 20.410156 C 32.527344 20.546875 32.675781 20.691406 32.816406 20.839844 C 32.824219 20.847656 32.832031 20.847656 32.839844 20.847656 C 32.851562 20.84375 32.859375 20.839844 32.859375 20.828125 C 32.859375 15.578125 32.859375 10.332031 32.859375 5.085938 C 32.859375 5.078125 32.855469 5.074219 32.855469 5.066406 C 32.851562 5.0625 32.851562 5.058594 32.851562 5.054688 Z M 2.214844 20.847656 C 2.433594 20.628906 2.667969 20.402344 2.921875 20.160156 C 5.1875 18.003906 7.429688 15.863281 9.640625 13.742188 C 9.890625 13.503906 10.15625 13.253906 10.433594 12.992188 C 10.488281 12.945312 10.488281 12.894531 10.433594 12.84375 C 10.328125 12.746094 10.226562 12.652344 10.128906 12.5625 C 7.457031 10.0625 4.941406 7.71875 2.582031 5.53125 C 2.4375 5.398438 2.304688 5.273438 2.175781 5.152344 C 2.167969 5.148438 2.164062 5.148438 2.164062 5.152344 L 2.15625 20.824219 C 2.15625 20.878906 2.175781 20.886719 2.214844 20.847656 Z M 17.625 18.046875 C 16.5625 18.097656 15.707031 17.710938 14.929688 16.980469 C 14.222656 16.316406 13.347656 15.496094 12.308594 14.527344 C 12.265625 14.484375 12.21875 14.445312 12.167969 14.410156 C 12.132812 14.382812 12.101562 14.382812 12.070312 14.414062 C 11.9375 14.53125 11.816406 14.664062 11.6875 14.785156 C 8.980469 17.375 6.296875 19.941406 3.636719 22.492188 C 3.300781 22.816406 3.003906 23.097656 2.742188 23.335938 C 2.59375 23.472656 2.453125 23.605469 2.320312 23.738281 C 2.285156 23.773438 2.285156 23.8125 2.320312 23.847656 C 2.53125 24.070312 2.714844 24.054688 3.054688 24.054688 C 12.769531 24.054688 22.484375 24.054688 32.199219 24.054688 C 32.4375 24.054688 32.570312 24.03125 32.699219 23.839844 C 32.726562 23.792969 32.722656 23.753906 32.683594 23.714844 C 29.554688 20.753906 26.421875 17.789062 23.296875 14.820312 C 23.121094 14.65625 22.972656 14.507812 22.851562 14.375 C 22.8125 14.332031 22.773438 14.332031 22.730469 14.371094 C 21.847656 15.183594 20.972656 16.011719 20.101562 16.832031 C 19.765625 17.148438 19.503906 17.367188 19.320312 17.484375 C 18.78125 17.832031 18.214844 18.023438 17.625 18.046875 Z M 17.625 18.046875 "/><path style=" stroke:none;fill-rule:nonzero;fill:#ffffff;fill-opacity:1;" d="M 32.296875 26.242188 L 2.714844 26.242188 C 2.492188 26.214844 2.328125 26.1875 2.226562 26.167969 C 1.277344 25.96875 0.492188 25.226562 0.175781 24.339844 C 0.0820312 24.074219 0.046875 23.796875 0 23.515625 L 0 2.6875 C 0.0507812 2.550781 0.046875 2.402344 0.0742188 2.289062 C 0.109375 2.132812 0.148438 1.957031 0.210938 1.8125 C 0.609375 0.878906 1.308594 0.300781 2.300781 0.0820312 C 2.394531 0.0625 2.484375 0.0507812 2.578125 0.0429688 C 2.703125 0.0390625 2.820312 0.0117188 2.945312 0.0117188 C 12.585938 0.0078125 22.324219 0.0078125 32.167969 0.0117188 C 32.242188 0.0117188 32.316406 0.015625 32.390625 0.0273438 C 32.464844 0.0390625 32.539062 0.046875 32.613281 0.0585938 C 32.871094 0.09375 33.097656 0.152344 33.296875 0.242188 C 34.238281 0.664062 34.933594 1.546875 35.003906 2.601562 C 35.015625 2.773438 35.03125 2.9375 35.03125 3.109375 C 34.992188 8.339844 35.011719 13.574219 35.011719 19.171875 C 35.011719 20.371094 35.042969 21.632812 35.027344 22.898438 C 35.023438 23.289062 35.011719 23.550781 35 23.6875 C 34.921875 24.515625 34.53125 25.191406 33.828125 25.710938 C 33.492188 25.960938 33.121094 26.117188 32.707031 26.183594 C 32.570312 26.207031 32.433594 26.226562 32.296875 26.242188 Z M 16.996094 15.78125 C 17.4375 15.949219 17.960938 15.839844 18.308594 15.519531 C 21.359375 12.675781 24.394531 9.859375 27.414062 7.078125 C 29.15625 5.46875 30.886719 3.867188 32.597656 2.277344 C 32.625 2.25 32.625 2.226562 32.601562 2.199219 C 32.5625 2.160156 32.503906 2.136719 32.425781 2.136719 C 22.429688 2.132812 12.554688 2.132812 2.800781 2.132812 C 2.609375 2.132812 2.5 2.175781 2.371094 2.300781 C 2.351562 2.320312 2.351562 2.335938 2.371094 2.355469 C 2.476562 2.445312 2.582031 2.539062 2.6875 2.632812 C 3.847656 3.695312 5.152344 4.902344 6.601562 6.253906 C 9.707031 9.148438 12.71875 11.949219 15.640625 14.652344 C 15.898438 14.894531 16.164062 15.140625 16.4375 15.390625 C 16.660156 15.59375 16.84375 15.722656 16.996094 15.78125 Z M 32.851562 5.054688 C 32.851562 5.046875 32.847656 5.039062 32.839844 5.035156 C 32.832031 5.027344 32.824219 5.027344 32.816406 5.035156 C 32.578125 5.21875 32.382812 5.4375 32.15625 5.652344 C 29.675781 7.953125 27.132812 10.328125 24.523438 12.769531 C 24.5 12.792969 24.472656 12.816406 24.445312 12.832031 C 24.40625 12.859375 24.402344 12.890625 24.441406 12.921875 C 24.527344 12.992188 24.605469 13.0625 24.671875 13.125 C 26.082031 14.445312 27.597656 15.875 29.222656 17.414062 C 29.539062 17.714844 29.8125 17.976562 30.050781 18.210938 C 30.308594 18.464844 30.585938 18.707031 30.84375 18.960938 C 31.042969 19.15625 31.242188 19.34375 31.433594 19.519531 C 31.757812 19.808594 32.050781 20.117188 32.375 20.410156 C 32.527344 20.546875 32.675781 20.691406 32.816406 20.839844 C 32.824219 20.847656 32.832031 20.847656 32.839844 20.847656 C 32.851562 20.84375 32.859375 20.839844 32.859375 20.828125 C 32.859375 15.578125 32.859375 10.332031 32.859375 5.085938 C 32.859375 5.078125 32.855469 5.074219 32.855469 5.066406 C 32.851562 5.0625 32.851562 5.058594 32.851562 5.054688 Z M 2.214844 20.847656 C 2.433594 20.628906 2.667969 20.402344 2.921875 20.160156 C 5.1875 18.003906 7.429688 15.863281 9.640625 13.742188 C 9.890625 13.503906 10.15625 13.253906 10.433594 12.992188 C 10.488281 12.945312 10.488281 12.894531 10.433594 12.84375 C 10.328125 12.746094 10.226562 12.652344 10.128906 12.5625 C 7.457031 10.0625 4.941406 7.71875 2.582031 5.53125 C 2.4375 5.398438 2.304688 5.273438 2.175781 5.152344 C 2.167969 5.148438 2.164062 5.148438 2.164062 5.152344 L 2.15625 20.824219 C 2.15625 20.878906 2.175781 20.886719 2.214844 20.847656 Z M 17.625 18.046875 C 16.5625 18.097656 15.707031 17.710938 14.929688 16.980469 C 14.222656 16.316406 13.347656 15.496094 12.308594 14.527344 C 12.265625 14.484375 12.21875 14.445312 12.167969 14.410156 C 12.132812 14.382812 12.101562 14.382812 12.070312 14.414062 C 11.9375 14.53125 11.816406 14.664062 11.6875 14.785156 C 8.980469 17.375 6.296875 19.941406 3.636719 22.492188 C 3.300781 22.816406 3.003906 23.097656 2.742188 23.335938 C 2.59375 23.472656 2.453125 23.605469 2.320312 23.738281 C 2.285156 23.773438 2.285156 23.8125 2.320312 23.847656 C 2.53125 24.070312 2.714844 24.054688 3.054688 24.054688 C 12.769531 24.054688 22.484375 24.054688 32.199219 24.054688 C 32.4375 24.054688 32.570312 24.03125 32.699219 23.839844 C 32.726562 23.792969 32.722656 23.753906 32.683594 23.714844 C 29.554688 20.753906 26.421875 17.789062 23.296875 14.820312 C 23.121094 14.65625 22.972656 14.507812 22.851562 14.375 C 22.8125 14.332031 22.773438 14.332031 22.730469 14.371094 C 21.847656 15.183594 20.972656 16.011719 20.101562 16.832031 C 19.765625 17.148438 19.503906 17.367188 19.320312 17.484375 C 18.78125 17.832031 18.214844 18.023438 17.625 18.046875 Z M 17.625 18.046875 "/></g></g></svg>