<svg xmlns="http://www.w3.org/2000/svg" xmlns:xlink="http://www.w3.org/1999/xlink" width="44" zoomAndPan="magnify" viewBox="0 0 33 35.25" height="47" preserveAspectRatio="xMidYMid meet" version="1.2"><defs><clipPath id="140d3e7f0f"><path d="M 0.34375 0 L 31.921875 0 L 31.921875 34.515625 L 0.34375 34.515625 Z M 0.34375 0 "/></clipPath></defs><g id="94c0184f74"><g clip-rule="nonzero" clip-path="url(#140d3e7f0f)"><path style=" stroke:none;fill-rule:nonzero;fill:#ffffff;fill-opacity:1;" d="M 21.390625 21.035156 L 20.5625 19.375 C 21.65625 17.761719 22.5 15.695312 23.082031 13.652344 C 23.648438 13.402344 24.222656 12.585938 24.507812 11.519531 C 24.867188 10.175781 24.628906 8.960938 23.992188 8.695312 C 24.011719 8.410156 24.023438 8.136719 24.023438 7.890625 C 24.023438 5.082031 22.996094 3.046875 21.390625 1.734375 L 21.390625 0 L 16.132812 0 C 11.777344 0 8.242188 2.628906 8.242188 7.890625 C 8.242188 8.136719 8.253906 8.410156 8.273438 8.691406 C 7.636719 8.957031 7.398438 10.171875 7.757812 11.515625 C 8.042969 12.582031 8.617188 13.402344 9.183594 13.648438 C 9.765625 15.695312 10.609375 17.761719 11.703125 19.375 L 10.875 21.035156 L 1.808594 25.570312 C 0.917969 26.015625 0.355469 26.925781 0.355469 27.921875 L 0.355469 34.183594 L 31.910156 34.183594 L 31.910156 27.921875 C 31.910156 26.925781 31.347656 26.015625 30.457031 25.570312 Z M 21.390625 21.035156 "/><path style=" stroke:none;fill-rule:nonzero;fill:#ffffff;fill-opacity:1;" d="M 21.390625 21.035156 L 20.5625 19.375 C 21.65625 17.761719 22.5 15.695312 23.082031 13.652344 C 23.648438 13.402344 24.222656 12.585938 24.507812 11.519531 C 24.867188 10.175781 24.628906 8.960938 23.992188 8.695312 C 24.011719 8.410156 24.023438 8.136719 24.023438 7.890625 C 24.023438 5.082031 22.996094 3.046875 21.390625 1.734375 L 21.390625 0 L 16.132812 0 C 11.777344 0 8.242188 2.628906 8.242188 7.890625 C 8.242188 8.136719 8.253906 8.410156 8.273438 8.691406 C 7.636719 8.957031 7.398438 10.171875 7.757812 11.515625 C 8.042969 12.582031 8.617188 13.402344 9.183594 13.648438 C 9.765625 15.695312 10.609375 17.761719 11.703125 19.375 L 10.875 21.035156 L 1.808594 25.570312 C 0.917969 26.015625 0.355469 26.925781 0.355469 27.921875 L 0.355469 34.183594 L 31.910156 34.183594 L 31.910156 27.921875 C 31.910156 26.925781 31.347656 26.015625 30.457031 25.570312 Z M 21.390625 21.035156 "/></g></g></svg>