<svg xmlns="http://www.w3.org/2000/svg" xmlns:xlink="http://www.w3.org/1999/xlink" width="80" zoomAndPan="magnify" viewBox="0 0 60 32.249999" height="43" preserveAspectRatio="xMidYMid meet" version="1.2"><defs><clipPath id="1e73d82e03"><path d="M 0.683594 14 L 18 14 L 18 20 L 0.683594 20 Z M 0.683594 14 "/></clipPath><clipPath id="8a5c2a27db"><path d="M 4 30 L 15 30 L 15 31.515625 L 4 31.515625 Z M 4 30 "/></clipPath><clipPath id="e391abf73c"><path d="M 0.683594 14 L 18 14 L 18 20 L 0.683594 20 Z M 0.683594 14 "/></clipPath><clipPath id="5da3ec61e8"><path d="M 4 30 L 15 30 L 15 31.515625 L 4 31.515625 Z M 4 30 "/></clipPath></defs><g id="5717edd6eb"><path style=" stroke:none;fill-rule:nonzero;fill:#ffffff;fill-opacity:1;" d="M 51.308594 8.824219 C 49.730469 6.394531 46.515625 5.617188 44 7.050781 L 35.238281 12.054688 C 35.015625 12.179688 34.734375 12.140625 34.558594 11.957031 L 32.832031 10.152344 L 31.371094 12.820312 C 30.574219 14.28125 29.105469 15.222656 27.445312 15.34375 C 27.324219 15.351562 27.207031 15.355469 27.085938 15.355469 C 25.558594 15.355469 24.121094 14.648438 23.191406 13.414062 L 20.183594 9.417969 C 19.71875 8.679688 19.582031 7.855469 19.769531 7.054688 C 19.957031 6.253906 20.445312 5.574219 21.144531 5.144531 C 21.84375 4.714844 22.664062 4.585938 23.460938 4.773438 C 24.257812 4.964844 24.933594 5.457031 25.359375 6.15625 L 27.492188 9.644531 L 29.320312 6.625 C 27.449219 5.070312 25.195312 4.058594 22.757812 3.710938 C 20.136719 3.324219 17.613281 5.121094 17.058594 7.667969 C 16.976562 8.054688 16.9375 8.433594 16.9375 8.785156 C 16.9375 10.785156 18.121094 12.613281 19.957031 13.441406 L 33.011719 19.289062 C 34.617188 20.007812 36.4375 19.957031 38.003906 19.15625 L 47.003906 14.511719 C 47.265625 14.375 47.585938 14.46875 47.738281 14.722656 L 52.816406 23.257812 C 53.320312 24.101562 54.160156 24.671875 55.128906 24.828125 C 56.101562 24.992188 57.082031 24.710938 57.824219 24.066406 C 58.546875 23.4375 58.960938 22.527344 58.960938 21.566406 C 58.960938 20.921875 58.777344 20.296875 58.429688 19.765625 Z M 51.308594 8.824219 "/><path style=" stroke:none;fill-rule:nonzero;fill:#ffffff;fill-opacity:1;" d="M 27.496094 11.273438 C 27.300781 11.273438 27.121094 11.171875 27.019531 11.007812 L 24.410156 6.738281 C 24.136719 6.292969 23.707031 5.980469 23.199219 5.859375 C 23.050781 5.824219 22.894531 5.804688 22.742188 5.804688 C 22.386719 5.804688 22.039062 5.902344 21.726562 6.09375 C 21.28125 6.367188 20.972656 6.800781 20.851562 7.308594 C 20.734375 7.816406 20.820312 8.339844 21.097656 8.785156 L 24.078125 12.742188 C 24.851562 13.765625 26.074219 14.320312 27.359375 14.230469 C 28.640625 14.136719 29.777344 13.410156 30.390625 12.28125 L 33.796875 6.0625 C 34.105469 5.503906 33.921875 4.792969 33.378906 4.453125 C 33.101562 4.277344 32.769531 4.222656 32.453125 4.300781 C 32.132812 4.375 31.863281 4.574219 31.691406 4.851562 L 27.972656 11.003906 C 27.871094 11.171875 27.691406 11.273438 27.496094 11.273438 Z M 27.496094 11.273438 "/><path style=" stroke:none;fill-rule:nonzero;fill:#ffffff;fill-opacity:1;" d="M 14.414062 5.109375 C 14.414062 2.296875 12.125 0.0117188 9.3125 0.0117188 C 6.5 0.0117188 4.214844 2.296875 4.214844 5.109375 C 4.214844 7.921875 6.5 10.210938 9.3125 10.210938 C 12.125 10.210938 14.414062 7.921875 14.414062 5.109375 Z M 14.414062 5.109375 "/><g clip-rule="nonzero" clip-path="url(#1e73d82e03)"><path style=" stroke:none;fill-rule:nonzero;fill:#ffffff;fill-opacity:1;" d="M 7.730469 16.09375 C 7.738281 16.09375 7.746094 16.089844 7.75 16.089844 C 7.757812 16.089844 7.765625 16.09375 7.773438 16.09375 L 10.804688 16.09375 C 10.8125 16.09375 10.820312 16.089844 10.824219 16.089844 C 10.832031 16.089844 10.839844 16.09375 10.847656 16.09375 L 12.632812 16.09375 C 14.535156 16.09375 16.113281 17.5 16.382812 19.328125 L 17.765625 19.328125 C 17.488281 16.742188 15.292969 14.722656 12.632812 14.722656 L 5.9375 14.722656 C 3.277344 14.722656 1.082031 16.742188 0.804688 19.328125 L 2.1875 19.328125 C 2.460938 17.5 4.039062 16.09375 5.9375 16.09375 Z M 7.730469 16.09375 "/></g><path style=" stroke:none;fill-rule:nonzero;fill:#ffffff;fill-opacity:1;" d="M 8.308594 17.210938 L 10.269531 17.210938 L 10.269531 29.070312 L 8.308594 29.070312 Z M 8.308594 17.210938 "/><g clip-rule="nonzero" clip-path="url(#8a5c2a27db)"><path style=" stroke:none;fill-rule:nonzero;fill:#ffffff;fill-opacity:1;" d="M 10.828125 30.1875 C 10.820312 30.1875 10.8125 30.183594 10.804688 30.183594 L 7.773438 30.183594 C 7.765625 30.183594 7.757812 30.1875 7.753906 30.1875 C 7.746094 30.1875 7.738281 30.183594 7.730469 30.183594 L 4.308594 30.183594 L 4.308594 31.4375 L 14.273438 31.4375 L 14.273438 30.183594 L 10.851562 30.183594 C 10.84375 30.183594 10.835938 30.1875 10.828125 30.1875 Z M 10.828125 30.1875 "/></g><path style=" stroke:none;fill-rule:nonzero;fill:#ffffff;fill-opacity:1;" d="M 51.308594 8.824219 C 49.730469 6.394531 46.515625 5.617188 44 7.050781 L 35.238281 12.054688 C 35.015625 12.179688 34.734375 12.140625 34.558594 11.957031 L 32.832031 10.152344 L 31.371094 12.820312 C 30.574219 14.28125 29.105469 15.222656 27.445312 15.34375 C 27.324219 15.351562 27.207031 15.355469 27.085938 15.355469 C 25.558594 15.355469 24.121094 14.648438 23.191406 13.414062 L 20.183594 9.417969 C 19.71875 8.679688 19.582031 7.855469 19.769531 7.054688 C 19.957031 6.253906 20.445312 5.574219 21.144531 5.144531 C 21.84375 4.714844 22.664062 4.585938 23.460938 4.773438 C 24.257812 4.964844 24.933594 5.457031 25.359375 6.15625 L 27.492188 9.644531 L 29.320312 6.625 C 27.449219 5.070312 25.195312 4.058594 22.757812 3.710938 C 20.136719 3.324219 17.613281 5.121094 17.058594 7.667969 C 16.976562 8.054688 16.9375 8.433594 16.9375 8.785156 C 16.9375 10.785156 18.121094 12.613281 19.957031 13.441406 L 33.011719 19.289062 C 34.617188 20.007812 36.4375 19.957031 38.003906 19.15625 L 47.003906 14.511719 C 47.265625 14.375 47.585938 14.46875 47.738281 14.722656 L 52.816406 23.257812 C 53.320312 24.101562 54.160156 24.671875 55.128906 24.828125 C 56.101562 24.992188 57.082031 24.710938 57.824219 24.066406 C 58.546875 23.4375 58.960938 22.527344 58.960938 21.566406 C 58.960938 20.921875 58.777344 20.296875 58.429688 19.765625 Z M 51.308594 8.824219 "/><path style=" stroke:none;fill-rule:nonzero;fill:#ffffff;fill-opacity:1;" d="M 27.496094 11.273438 C 27.300781 11.273438 27.121094 11.171875 27.019531 11.007812 L 24.410156 6.738281 C 24.136719 6.292969 23.707031 5.980469 23.199219 5.859375 C 23.050781 5.824219 22.894531 5.804688 22.742188 5.804688 C 22.386719 5.804688 22.039062 5.902344 21.726562 6.09375 C 21.28125 6.367188 20.972656 6.800781 20.851562 7.308594 C 20.734375 7.816406 20.820312 8.339844 21.097656 8.785156 L 24.078125 12.742188 C 24.851562 13.765625 26.074219 14.320312 27.359375 14.230469 C 28.640625 14.136719 29.777344 13.410156 30.390625 12.28125 L 33.796875 6.0625 C 34.105469 5.503906 33.921875 4.792969 33.378906 4.453125 C 33.101562 4.277344 32.769531 4.222656 32.453125 4.300781 C 32.132812 4.375 31.863281 4.574219 31.691406 4.851562 L 27.972656 11.003906 C 27.871094 11.171875 27.691406 11.273438 27.496094 11.273438 Z M 27.496094 11.273438 "/><path style=" stroke:none;fill-rule:nonzero;fill:#ffffff;fill-opacity:1;" d="M 14.414062 5.109375 C 14.414062 2.296875 12.125 0.0117188 9.3125 0.0117188 C 6.5 0.0117188 4.214844 2.296875 4.214844 5.109375 C 4.214844 7.921875 6.5 10.210938 9.3125 10.210938 C 12.125 10.210938 14.414062 7.921875 14.414062 5.109375 Z M 14.414062 5.109375 "/><g clip-rule="nonzero" clip-path="url(#e391abf73c)"><path style=" stroke:none;fill-rule:nonzero;fill:#ffffff;fill-opacity:1;" d="M 7.730469 16.09375 C 7.738281 16.09375 7.746094 16.089844 7.75 16.089844 C 7.757812 16.089844 7.765625 16.09375 7.773438 16.09375 L 10.804688 16.09375 C 10.8125 16.09375 10.820312 16.089844 10.824219 16.089844 C 10.832031 16.089844 10.839844 16.09375 10.847656 16.09375 L 12.632812 16.09375 C 14.535156 16.09375 16.113281 17.5 16.382812 19.328125 L 17.765625 19.328125 C 17.488281 16.742188 15.292969 14.722656 12.632812 14.722656 L 5.9375 14.722656 C 3.277344 14.722656 1.082031 16.742188 0.804688 19.328125 L 2.1875 19.328125 C 2.460938 17.5 4.039062 16.09375 5.9375 16.09375 Z M 7.730469 16.09375 "/></g><path style=" stroke:none;fill-rule:nonzero;fill:#ffffff;fill-opacity:1;" d="M 8.308594 17.210938 L 10.269531 17.210938 L 10.269531 29.070312 L 8.308594 29.070312 Z M 8.308594 17.210938 "/><g clip-rule="nonzero" clip-path="url(#5da3ec61e8)"><path style=" stroke:none;fill-rule:nonzero;fill:#ffffff;fill-opacity:1;" d="M 10.828125 30.1875 C 10.820312 30.1875 10.8125 30.183594 10.804688 30.183594 L 7.773438 30.183594 C 7.765625 30.183594 7.757812 30.1875 7.753906 30.1875 C 7.746094 30.1875 7.738281 30.183594 7.730469 30.183594 L 4.308594 30.183594 L 4.308594 31.4375 L 14.273438 31.4375 L 14.273438 30.183594 L 10.851562 30.183594 C 10.84375 30.183594 10.835938 30.1875 10.828125 30.1875 Z M 10.828125 30.1875 "/></g></g></svg>