<svg xmlns="http://www.w3.org/2000/svg" xmlns:xlink="http://www.w3.org/1999/xlink" width="31" zoomAndPan="magnify" viewBox="0 0 23.25 34.5" height="46" preserveAspectRatio="xMidYMid meet" version="1.2"><defs><clipPath id="63b257e45e"><path d="M 0 0.296875 L 21.796875 0.296875 L 21.796875 33.71875 L 0 33.71875 Z M 0 0.296875 "/></clipPath><clipPath id="94b1bba269"><path d="M 0.21875 0.296875 L 22.015625 0.296875 L 22.015625 33.71875 L 0.21875 33.71875 Z M 0.21875 0.296875 "/></clipPath></defs><g id="fe2c8dcfb6"><g clip-rule="nonzero" clip-path="url(#63b257e45e)"><path style=" stroke:none;fill-rule:nonzero;fill:#ffffff;fill-opacity:1;" d="M 10.898438 0.484375 C 4.875 0.484375 -0.0078125 5.367188 -0.0078125 11.390625 C -0.0078125 17.414062 10.898438 33.199219 10.898438 33.199219 C 10.898438 33.199219 21.804688 17.414062 21.804688 11.390625 C 21.804688 5.367188 16.917969 0.484375 10.898438 0.484375 Z M 10.898438 16.554688 C 7.726562 16.554688 5.160156 13.988281 5.160156 10.816406 C 5.160156 7.648438 7.726562 5.078125 10.898438 5.078125 C 14.066406 5.078125 16.636719 7.648438 16.636719 10.816406 C 16.636719 13.988281 14.066406 16.554688 10.898438 16.554688 Z M 10.898438 16.554688 "/></g><g clip-rule="nonzero" clip-path="url(#94b1bba269)"><path style=" stroke:none;fill-rule:nonzero;fill:#ffffff;fill-opacity:1;" d="M 11.117188 0.484375 C 5.097656 0.484375 0.214844 5.367188 0.214844 11.390625 C 0.214844 17.414062 11.117188 33.199219 11.117188 33.199219 C 11.117188 33.199219 22.023438 17.414062 22.023438 11.390625 C 22.023438 5.367188 17.140625 0.484375 11.117188 0.484375 Z M 11.117188 16.554688 C 7.949219 16.554688 5.378906 13.988281 5.378906 10.816406 C 5.378906 7.648438 7.949219 5.078125 11.117188 5.078125 C 14.289062 5.078125 16.855469 7.648438 16.855469 10.816406 C 16.855469 13.988281 14.289062 16.554688 11.117188 16.554688 Z M 11.117188 16.554688 "/></g></g></svg>