<svg xmlns="http://www.w3.org/2000/svg" xmlns:xlink="http://www.w3.org/1999/xlink" width="41" zoomAndPan="magnify" viewBox="0 0 30.75 30.750001" height="41" preserveAspectRatio="xMidYMid meet" version="1.2"><defs><clipPath id="c0dd58488a"><path d="M 0 0 L 29.757812 0 L 29.757812 29.757812 L 0 29.757812 Z M 0 0 "/></clipPath></defs><g id="2ec278b113"><g clip-rule="nonzero" clip-path="url(#c0dd58488a)"><path style=" stroke:none;fill-rule:nonzero;fill:#ffffff;fill-opacity:1;" d="M 29.390625 21.84375 C 29.605469 22.425781 29.734375 23.050781 29.753906 23.703125 C 29.757812 23.765625 29.757812 23.824219 29.757812 23.890625 C 29.757812 27.128906 27.128906 29.757812 23.890625 29.757812 C 10.695312 29.757812 0 19.0625 0 5.867188 C 0 2.628906 2.628906 0 5.867188 0 C 5.933594 0 5.992188 0 6.054688 0.00390625 C 6.707031 0.0234375 7.335938 0.152344 7.914062 0.367188 L 10.117188 9.90625 C 10.117188 9.910156 10.113281 9.914062 10.109375 9.914062 L 6.070312 11.730469 L 6.058594 11.734375 C 7.914062 17.378906 12.378906 21.84375 18.023438 23.699219 L 18.027344 23.6875 L 19.847656 19.644531 L 29.390625 21.84375 "/><path style=" stroke:none;fill-rule:nonzero;fill:#ffffff;fill-opacity:1;" d="M 29.390625 21.84375 C 29.605469 22.425781 29.734375 23.050781 29.753906 23.703125 C 29.757812 23.765625 29.757812 23.824219 29.757812 23.890625 C 29.757812 27.128906 27.128906 29.757812 23.890625 29.757812 C 10.695312 29.757812 0 19.0625 0 5.867188 C 0 2.628906 2.628906 0 5.867188 0 C 5.933594 0 5.992188 0 6.054688 0.00390625 C 6.707031 0.0234375 7.335938 0.152344 7.914062 0.367188 L 10.117188 9.90625 C 10.117188 9.910156 10.113281 9.914062 10.109375 9.914062 L 6.070312 11.730469 L 6.058594 11.734375 C 7.914062 17.378906 12.378906 21.84375 18.023438 23.699219 L 18.027344 23.6875 L 19.847656 19.644531 L 29.390625 21.84375 "/></g></g></svg>