<svg xmlns="http://www.w3.org/2000/svg" xmlns:xlink="http://www.w3.org/1999/xlink" width="82" zoomAndPan="magnify" viewBox="0 0 61.5 27.749998" height="37" preserveAspectRatio="xMidYMid meet" version="1.2"><defs><clipPath id="de8fe1fde7"><path d="M 0.0273438 6 L 55 6 L 55 27.503906 L 0.0273438 27.503906 Z M 0.0273438 6 "/></clipPath><clipPath id="5c80444e63"><path d="M 0.0273438 6 L 55 6 L 55 27.503906 L 0.0273438 27.503906 Z M 0.0273438 6 "/></clipPath></defs><g id="8173ca7dbf"><g clip-rule="nonzero" clip-path="url(#de8fe1fde7)"><path style=" stroke:none;fill-rule:nonzero;fill:#ffffff;fill-opacity:1;" d="M 51.273438 21.25 L 45.675781 21.25 C 45.550781 18.503906 45.054688 12.140625 44.921875 11.152344 C 44.503906 8.070312 42.273438 5.914062 39.550781 6.070312 C 37.101562 6.210938 30.957031 8.523438 26.222656 10.433594 C 23.625 11.484375 21.65625 13.550781 20.71875 16.078125 L 3.050781 20.5 C 1.171875 20.96875 0.0273438 22.871094 0.496094 24.757812 C 0.898438 26.347656 2.324219 27.417969 3.894531 27.410156 C 4.175781 27.410156 4.464844 27.378906 4.746094 27.304688 L 39.351562 18.488281 C 39.496094 20.882812 39.589844 23.1875 39.625 24.425781 C 39.675781 26.089844 41.042969 27.410156 42.707031 27.410156 L 51.265625 27.410156 C 52.96875 27.410156 54.347656 26.035156 54.347656 24.332031 C 54.347656 22.628906 52.96875 21.25 51.273438 21.25 Z M 51.273438 21.25 "/></g><path style=" stroke:none;fill-rule:nonzero;fill:#ffffff;fill-opacity:1;" d="M 59.085938 4.667969 C 57.332031 1.316406 53.195312 0.015625 49.839844 1.765625 C 46.488281 3.519531 45.1875 7.660156 46.9375 11.015625 C 48.691406 14.363281 52.832031 15.667969 56.1875 13.914062 C 59.542969 12.152344 60.839844 8.015625 59.085938 4.667969 Z M 59.085938 4.667969 "/><g clip-rule="nonzero" clip-path="url(#5c80444e63)"><path style=" stroke:none;fill-rule:nonzero;fill:#ffffff;fill-opacity:1;" d="M 51.273438 21.25 L 45.675781 21.25 C 45.550781 18.503906 45.054688 12.140625 44.921875 11.152344 C 44.503906 8.070312 42.273438 5.914062 39.550781 6.070312 C 37.101562 6.210938 30.957031 8.523438 26.222656 10.433594 C 23.625 11.484375 21.65625 13.550781 20.71875 16.078125 L 3.050781 20.5 C 1.171875 20.96875 0.0273438 22.871094 0.496094 24.757812 C 0.898438 26.347656 2.324219 27.417969 3.894531 27.410156 C 4.175781 27.410156 4.464844 27.378906 4.746094 27.304688 L 39.351562 18.488281 C 39.496094 20.882812 39.589844 23.1875 39.625 24.425781 C 39.675781 26.089844 41.042969 27.410156 42.707031 27.410156 L 51.265625 27.410156 C 52.96875 27.410156 54.347656 26.035156 54.347656 24.332031 C 54.347656 22.628906 52.96875 21.25 51.273438 21.25 Z M 51.273438 21.25 "/></g><path style=" stroke:none;fill-rule:nonzero;fill:#ffffff;fill-opacity:1;" d="M 59.085938 4.667969 C 57.332031 1.316406 53.195312 0.015625 49.839844 1.765625 C 46.488281 3.519531 45.1875 7.660156 46.9375 11.015625 C 48.691406 14.363281 52.832031 15.667969 56.1875 13.914062 C 59.542969 12.152344 60.839844 8.015625 59.085938 4.667969 Z M 59.085938 4.667969 "/></g></svg>